<?xml version="1.0" encoding="utf-8"?>
<!-- Generator: Adobe Illustrator 19.2.1, SVG Export Plug-In . SVG Version: 6.00 Build 0)  -->
<svg version="1.1" id="Layer_1" xmlns="http://www.w3.org/2000/svg" xmlns:xlink="http://www.w3.org/1999/xlink" x="0px" y="0px"
	 viewBox="0 0 17.16 58.128" style="enable-background:new 0 0 17.16 58.128;" xml:space="preserve">
<style type="text/css">
	.st0{fill:#00FFD5;}
</style>
<g>
	<path class="st0" d="M15.996,56.784c0.776-0.752,1.164-1.776,1.164-3.072c0-1.44-0.396-2.56-1.188-3.36
		c-0.792-0.8-2.004-1.2-3.636-1.2H0v3.24h12.576c0.576,0,0.984,0.108,1.224,0.324s0.36,0.548,0.36,0.996
		c0,0.784-0.592,1.288-1.776,1.512l0.84,2.904C14.296,57.984,15.22,57.536,15.996,56.784z"/>
	<path class="st0" d="M10.368,20.256h-2.64v18.936h2.64V20.256z"/>
	<path class="st0" d="M16.8,0h-3v6.936H0v3.24h16.8V0z"/>
</g>
</svg>
